<?xml version="1.0" standalone="no"?>
<!DOCTYPE svg PUBLIC "-//W3C//DTD SVG 20010904//EN"
 "http://www.w3.org/TR/2001/REC-SVG-20010904/DTD/svg10.dtd">
<svg version="1.0" xmlns="http://www.w3.org/2000/svg"
 width="125.000000pt" height="125.000000pt" viewBox="0 0 125.000000 125.000000"
 preserveAspectRatio="xMidYMid meet">
<metadata>
Created by potrace 1.11, written by Peter Selinger 2001-2013
</metadata>
<g transform="translate(0.000000,125.000000) scale(0.100000,-0.100000)"
fill="#000000" stroke="none">
<path d="M765 1116 c-9 -13 -15 -28 -14 -32 1 -5 0 -11 -1 -14 -1 -3 -4 -18
-5 -35 -2 -16 -4 -30 -5 -30 -2 0 -4 -11 -6 -25 -1 -14 -5 -43 -9 -65 -3 -22
-8 -53 -10 -70 -11 -73 -14 -91 -20 -115 -4 -14 -8 -38 -10 -55 -2 -16 -4 -30
-5 -30 -2 0 -9 -30 -16 -65 -2 -14 -7 -36 -10 -50 -3 -14 -5 -32 -5 -40 0 -9
-17 -26 -37 -39 -20 -13 -55 -36 -77 -51 -40 -26 -190 -102 -200 -100 -3 0
-19 -7 -36 -16 -34 -17 -65 -26 -91 -26 -10 1 -20 -3 -23 -8 -10 -16 -65 11
-70 33 -22 96 80 264 286 470 109 109 119 117 151 113 18 -2 42 1 53 6 30 15
75 60 69 69 -2 4 0 10 6 14 16 10 -17 63 -50 80 -17 9 -36 12 -43 8 -7 -4 -18
-8 -24 -9 -27 -4 -142 -95 -229 -181 -128 -126 -204 -225 -265 -349 -48 -97
-54 -115 -56 -182 -1 -48 3 -84 11 -101 19 -36 72 -85 84 -77 6 4 13 2 16 -3
5 -8 40 -7 106 3 14 2 27 5 30 6 3 1 9 2 14 1 4 -1 14 3 21 9 7 6 23 13 35 15
41 8 132 55 211 110 44 30 83 55 85 55 3 0 1 -8 -4 -17 -5 -10 -8 -48 -8 -85
1 -56 5 -71 25 -92 23 -24 79 -37 82 -18 1 4 3 30 5 57 2 28 6 79 9 115 4 36
7 73 8 82 1 15 39 40 199 130 l31 17 39 -77 c88 -173 133 -229 178 -227 60 4
60 4 60 36 0 21 -10 40 -30 61 -30 29 -160 241 -160 259 0 5 33 43 74 83 42
41 74 81 72 90 -5 39 -23 36 -107 -18 l-84 -54 -17 21 c-9 12 -16 24 -16 27 1
3 -15 41 -36 85 -20 44 -37 82 -38 85 0 3 -10 23 -21 45 -11 22 -22 45 -23 50
-11 44 -12 60 -5 69 11 15 10 48 -2 64 -17 22 -75 15 -92 -12z m65 -286 c0 -5
20 -50 44 -102 49 -103 49 -106 -18 -138 -48 -23 -78 -41 -89 -55 -5 -5 -5 8
-1 30 4 22 8 54 9 70 1 17 4 30 5 30 1 0 4 9 6 20 1 11 6 38 9 60 4 22 8 54
10 70 1 17 3 31 4 33 2 6 21 -10 21 -18z"/>
</g>
</svg>
